<svg width="13" height="13" viewBox="0 0 13 13" fill="none" xmlns="http://www.w3.org/2000/svg">
  <path d="M11.0947 1.28603C10.9244 1.11643 10.7221 0.982265 10.4997 0.891275C10.2772 0.800284 10.0389 0.754274 9.79856 0.755901C9.55822 0.757528 9.32057 0.806761 9.09936 0.900755C8.87815 0.994749 8.67776 1.13164 8.50975 1.30353L1.64715 8.16623C1.3937 8.41969 1.21301 8.7366 1.12401 9.08382L0.542819 11.3512C0.467311 11.6457 0.735111 11.9135 1.02967 11.8379L3.29714 11.2564C3.64426 11.1673 3.96108 10.9867 4.21448 10.7333L11.0772 3.87049C11.2491 3.70256 11.386 3.50221 11.4801 3.28103C11.5741 3.05986 11.6233 2.82223 11.625 2.58191C11.6266 2.34158 11.5806 2.10331 11.4895 1.88088C11.3985 1.65845 11.2643 1.45627 11.0947 1.28603Z" fill="#AEB9E1" stroke="#AEB9E1" stroke-linecap="round" stroke-linejoin="round" />
</svg>
